<svg width="226" height="61" viewBox="0 0 226 61" fill="none" xmlns="http://www.w3.org/2000/svg">
<path d="M207.39 0.561523C216.603 0.561752 223.942 8.6875 223.942 8.6875L219.459 13.7646L219.466 13.752C216.951 10.9431 211.98 8.28031 206.902 8.28027C201.825 8.28027 197.835 12.0769 197.835 16.3135C197.835 20.5501 199.116 23.1126 212.96 27.0557C226.798 30.9987 225.863 43.415 225.863 43.415C225.863 49.3264 219.365 60.5614 208.377 60.5615C197.388 60.5615 188.621 48.8389 188.621 48.8389L194.092 45.1963C204.633 58.7933 217.937 52.2952 217.938 44.0156C217.938 35.7358 207.489 34.2479 202.318 32.5332C197.915 31.072 189.903 25.7877 189.902 16.9678C189.902 8.14755 198.176 0.561523 207.39 0.561523ZM150.839 1.22168L150.845 1.22852C162.867 1.22852 168.172 8.04698 168.172 18.8486C168.172 30.4061 157.418 35.1403 157.384 35.1553V26.6348C157.418 26.6127 160.932 24.3404 160.933 18.9961C160.933 9.0701 150.89 8.04581 150.832 8.04004L146.189 7.9873V8.02734C144.417 8.02734 144.334 9.85578 144.333 9.875L144.26 59.7939L137.441 59.7812L137.528 1.13477L143.813 1.14844V1.13477L150.839 1.22168ZM133.932 59.7871H126.253L104.716 16.9805C104.382 16.4534 103.888 16.0264 103.475 16.0264C103.061 16.0264 102.687 16.3538 102.354 16.8809L80.7706 59.7871H73.1642L102.667 1.05469H104.369L133.932 59.7871ZM171.635 56.5254L164.736 59.7871L157.384 50.8809V38.3975L171.635 56.5254ZM183.858 1.1416L183.766 59.7871L176.547 59.7754L176.639 1.12988L183.858 1.1416ZM47.1505 18.3682C47.9578 16.8671 49.826 16.3072 51.3204 17.1143C51.3204 17.1143 51.4479 17.1942 51.6681 17.3477C51.728 17.3943 51.7947 17.4407 51.8546 17.4873C54.3098 19.262 64.1373 27.3353 57.9796 38.9775L48.378 56.8047H48.3917C48.3583 56.8848 48.338 56.9588 48.2979 57.0322C47.4905 58.5331 45.6291 59.0934 44.128 58.2861C42.6338 57.4787 42.0737 55.6106 42.881 54.1162C42.9276 54.0362 42.9739 53.9758 43.0206 53.9092L52.6222 36.082C53.17 35.033 56.9376 27.1345 48.4054 22.5381C46.9042 21.7308 46.3432 19.8693 47.1505 18.3682ZM41.753 29.7178C42.5603 28.2233 44.4218 27.6626 45.9229 28.4697C47.4174 29.277 47.9783 31.1452 47.171 32.6396V32.6328C47.131 32.7129 47.0771 32.7731 47.0304 32.8398L35.2745 54.6768C35.2412 54.75 35.2216 54.8301 35.1817 54.9033C34.3678 56.3978 32.5061 56.9586 31.005 56.1514C29.5105 55.3508 28.9498 53.4826 29.7569 51.9814C29.797 51.9081 29.8508 51.848 29.8976 51.7812L41.6602 29.9443C41.6935 29.8711 41.7132 29.791 41.753 29.7178ZM12.3507 4.94434C13.1581 3.44346 15.0196 2.8832 16.5206 3.69043C18.0149 4.49782 18.5749 6.36595 17.7677 7.86035C17.7343 7.94034 17.6747 8.00087 17.628 8.07422L8.09384 25.7744C5.49859 30.5914 7.17959 36.5422 12.003 39.1377C16.8201 41.733 22.6713 39.8451 25.2667 35.0215L34.8077 17.3076C34.841 17.2343 34.8615 17.1544 34.9015 17.0811C35.7088 15.5799 37.5702 15.0189 39.0714 15.8262C40.5725 16.6334 41.1325 18.5016 40.3253 19.9961C40.2853 20.0694 40.2323 20.1365 40.1856 20.2031L30.4913 38.1904H30.4776C26.241 45.7096 16.8007 48.5052 9.16806 44.3955C1.53543 40.2856 -1.36682 30.8383 2.57626 23.1523H2.56259L12.2501 5.18457C12.2834 5.10457 12.3107 5.02434 12.3507 4.94434ZM23.2657 11.4697C29.5707 -0.232623 41.8005 3.55685 44.6427 4.6377C44.7159 4.66436 44.7891 4.69797 44.8624 4.72461C45.1113 4.82285 45.2443 4.88262 45.2491 4.88477L45.2423 4.87793C46.7434 5.68521 47.3044 7.54669 46.4972 9.04785C45.6899 10.549 43.8217 11.1091 42.3272 10.3018C33.2055 5.38857 28.6617 14.2959 28.63 14.3584L19.2159 31.8389C19.1826 31.9122 19.1621 31.9921 19.1222 32.0654C18.3149 33.5666 16.4534 34.1276 14.9522 33.3203C13.4578 32.513 12.8979 30.6449 13.7052 29.1504C13.7452 29.0771 13.7981 29.0169 13.8448 28.9502L23.2589 11.4697H23.2657Z" fill="#005EEA"/>
</svg>
