<svg width="32" height="33" viewBox="0 0 32 33" fill="none" xmlns="http://www.w3.org/2000/svg">
<rect y="0.564514" width="32" height="32" rx="2" fill="#005EEA"/>
<path d="M19.2258 10.9508C18.6676 10.6506 17.9753 10.859 17.6751 11.4173C17.6602 11.4446 17.6527 11.4743 17.6403 11.5016L14.0922 18.0892C13.127 19.8831 10.951 20.5853 9.15961 19.6201C7.3657 18.6549 6.74044 16.4417 7.70562 14.6503L11.2513 8.06764C11.2686 8.04035 11.291 8.01802 11.3034 7.98825C11.6036 7.43246 11.3952 6.73772 10.8394 6.4375C10.2811 6.13727 9.58885 6.34569 9.28863 6.90396C9.27374 6.93374 9.26382 6.96351 9.25141 6.99329L5.64871 13.6751H5.65367C4.18729 16.5335 5.26661 20.0469 8.1051 21.5753C10.9436 23.1037 14.4545 22.0641 16.03 19.2678H16.035L19.6402 12.5785C19.6575 12.5536 19.6774 12.5288 19.6923 12.5015C19.9925 11.9458 19.7841 11.251 19.2258 10.9508Z" fill="white"/>
<path d="M21.5234 6.88164C21.5234 6.88164 21.4738 6.85931 21.3795 6.82209C21.3522 6.81217 21.3249 6.79976 21.2976 6.78984C20.2407 6.38788 15.6926 4.97856 13.3479 9.33058H13.3454L9.84445 15.8313C9.82708 15.8561 9.80723 15.8785 9.79234 15.9058C9.49211 16.4615 9.70054 17.1563 10.2563 17.4565C10.8146 17.7567 11.5068 17.5483 11.8071 16.99C11.822 16.9627 11.8294 16.933 11.8418 16.9057L15.3428 10.4049C15.3428 10.4049 17.0325 7.06277 20.4367 8.89637C20.9925 9.1966 21.6872 8.98818 21.9874 8.42991C22.2876 7.87164 22.0792 7.17938 21.521 6.87916L21.5234 6.88164Z" fill="white"/>
<path d="M22.6871 26.1903L26.2575 19.5606C28.5477 15.2309 24.8928 12.2286 23.9798 11.5686C23.9574 11.5513 23.9326 11.5339 23.9103 11.5165C23.8284 11.4595 23.7813 11.4297 23.7813 11.4297C23.2255 11.1295 22.5308 11.3379 22.2305 11.8962C21.9303 12.4544 22.1387 13.1467 22.697 13.4469C25.8704 15.1564 24.4686 18.0942 24.2651 18.4837L20.6947 25.1135C20.6773 25.1383 20.6599 25.1606 20.6426 25.1904C20.3423 25.7462 20.5508 26.4409 21.1065 26.7411C21.6648 27.0414 22.3571 26.833 22.6573 26.2747C22.6722 26.2474 22.6796 26.2201 22.692 26.1903H22.6871Z" fill="white"/>
<path d="M22.238 17.2034C22.5382 16.6477 22.3298 15.9529 21.774 15.6527C21.2157 15.3525 20.5235 15.5609 20.2233 16.1167C20.2084 16.144 20.2009 16.1737 20.1885 16.201L15.8142 24.322C15.7968 24.3468 15.777 24.3691 15.7621 24.3964C15.4618 24.9547 15.6703 25.6494 16.2261 25.9472C16.7843 26.2474 17.4766 26.039 17.7793 25.4832C17.7942 25.4559 17.8016 25.4261 17.814 25.3988L22.1859 17.2779C22.2033 17.2531 22.2231 17.2307 22.238 17.201V17.2034Z" fill="white"/>
</svg>
